<svg xmlns="http://www.w3.org/2000/svg" width="192" height="192" viewBox="0 0 512 512">
  <path fill="#00B8D4" d="M256.3,478.8c-6.6,0-12-5.4-12-12v-76.4c0-6.6,5.4-12,12-12s12,5.4,12,12v76.4
    C268.3,473.4,262.9,478.8,256.3,478.8z"/>
  <circle fill="#00B8D4" cx="256.3" cy="450.8" r="16"/>
  <path fill="#00B8D4" d="M375.5,333.1c-16.4,0-32.7-3.9-48.1-11.7c-23.5-11.8-40.8-31.2-49.9-55.9c-1.1-2.9-0.7-6.2,1-8.8
    c1.7-2.6,4.6-4.2,7.7-4.2h42.3c4,0,7.6,2,9.8,5.3c2.2,3.3,2.5,7.5,0.8,11.1c-0.8,1.8-1.1,3.8-0.7,5.7c0.4,1.9,1.4,3.6,2.9,4.8
    c3.1,2.4,7.3,2.6,10.5,0.6c3.2-2,5.3-5.5,5.3-9.4V191c0-4-2.1-7.5-5.3-9.4c-3.2-2-7.4-1.8-10.5,0.6c-1.5,1.2-2.5,2.8-2.9,4.8
    c-0.4,1.9-0.1,3.9,0.7,5.7c1.7,3.6,1.4,7.8-0.8,11.1c-2.2,3.4-5.8,5.3-9.8,5.3h-42.3c-3.1,0-6-1.6-7.7-4.2
    c-1.7-2.6-2.1-5.9-1-8.8c9.1-24.7,26.4-44,49.9-55.9c15.4-7.7,31.7-11.7,48.1-11.7c60.3,0,109.5,49.2,109.5,109.5
    S435.9,333.1,375.5,333.1z"/>
  <circle fill="#00B8D4" cx="351.1" cy="256" r="16"/>
  <circle fill="#00B8D4" cx="381.5" cy="191" r="16"/>
  <path fill="#00B8D4" d="M136.1,333.1c-60.3,0-109.5-49.2-109.5-109.5S75.8,114,136.1,114c16.4,0,32.7,3.9,48.1,11.7
    c23.5,11.8,40.8,31.2,49.9,55.9c1.1,2.9,0.7,6.2-1,8.8c-1.7,2.6-4.6,4.2-7.7,4.2h-42.3c-4,0-7.6-2-9.8-5.3
    c-2.2-3.3-2.5-7.5-0.8-11.1c0.8-1.8,1.1-3.8,0.7-5.7c-0.4-1.9-1.4-3.6-2.9-4.8c-3.1-2.4-7.3-2.6-10.5-0.6c-3.2,2-5.3,5.5-5.3,9.4
    v79.7c0,4,2.1,7.5,5.3,9.4c3.2,2,7.4,1.8,10.5-0.6c1.5-1.2,2.5-2.8,2.9-4.8c0.4-1.9,0.1-3.9-0.7-5.7c-1.7-3.6-1.4-7.8,0.8-11.1
    c2.2-3.4,5.8-5.3,9.8-5.3h42.3c3.1,0,6,1.6,7.7,4.2c1.7,2.6,2.1,5.9,1,8.8c-9.1,24.7-26.4,44-49.9,55.9
    C168.8,329.2,152.5,333.1,136.1,333.1z"/>
  <circle fill="#00B8D4" cx="155.7" cy="321" r="16"/>
  <circle fill="#00B8D4" cx="155.7" cy="191" r="16"/>
  <circle fill="#00B8D4" cx="111.7" cy="256" r="16"/>
  <path fill="#00B8D4" d="M256,372.6c-6.6,0-12-5.4-12-12V33.2c0-6.6,5.4-12,12-12s12,5.4,12,12v327.4
    C268,367.2,262.6,372.6,256,372.6z"/>
</svg> 